<?xml version="1.0" encoding="UTF-8" standalone="no"?>
<!DOCTYPE svg PUBLIC "-//W3C//DTD SVG 1.1//EN"
 "http://www.w3.org/Graphics/SVG/1.1/DTD/svg11.dtd">
<!-- Generated by graphviz version 3.0.0 (0)
 -->
<!-- Title: G Pages: 1 -->
<svg width="953pt" height="553pt"
 viewBox="0.00 0.00 952.58 553.00" xmlns="http://www.w3.org/2000/svg" xmlns:xlink="http://www.w3.org/1999/xlink">
<g id="graph0" class="graph" transform="scale(1 1) rotate(0) translate(4 549)">
<title>G</title>
<polygon fill="white" stroke="transparent" points="-4,4 -4,-549 948.58,-549 948.58,4 -4,4"/>
<g id="clust1" class="cluster">
<title>clustercloud</title>
<polygon fill="none" stroke="black" points="379,-462 379,-537 773,-537 773,-462 379,-462"/>
<text text-anchor="middle" x="576" y="-521.8" font-family="Times,serif" font-size="14.00">Entrées</text>
</g>
<g id="clust2" class="cluster">
<title>clusterstyle</title>
<polygon fill="none" stroke="black" points="8,-235 8,-454 456,-454 456,-235 8,-235"/>
<text text-anchor="middle" x="232" y="-438.8" font-family="Times,serif" font-size="14.00">Styles</text>
</g>
<g id="clust3" class="cluster">
<title>clusterdata</title>
<polygon fill="none" stroke="black" points="464,-163 464,-454 930,-454 930,-163 464,-163"/>
<text text-anchor="middle" x="697" y="-438.8" font-family="Times,serif" font-size="14.00">Données</text>
</g>
<g id="clust4" class="cluster">
<title>clusterserveur</title>
<polygon fill="none" stroke="black" points="431,-8 431,-155 533,-155 533,-8 431,-8"/>
<text text-anchor="middle" x="482" y="-139.8" font-family="Times,serif" font-size="14.00">Serveur</text>
</g>
<!-- tableur -->
<g id="node1" class="node">
<title>tableur</title>
<ellipse fill="lightgrey" stroke="black" cx="567" cy="-488" rx="44.39" ry="18"/>
<text text-anchor="middle" x="567" y="-484.3" font-family="Times,serif" font-size="14.00">tableur</text>
</g>
<!-- unmatched -->
<g id="node4" class="node">
<title>unmatched</title>
<polygon fill="none" stroke="black" points="300,-423 204,-423 204,-387 300,-387 300,-423"/>
<text text-anchor="middle" x="252" y="-401.3" font-family="Times,serif" font-size="14.00">unmatched</text>
</g>
<!-- tableur&#45;&gt;unmatched -->
<g id="edge1" class="edge">
<title>tableur&#45;&gt;unmatched</title>
<path fill="none" stroke="black" d="M542.42,-472.89C533.72,-468.59 523.68,-464.37 514,-462 469.72,-451.17 351.51,-470.46 309,-454 295.86,-448.91 283.59,-439.47 273.82,-430.3"/>
<polygon fill="black" stroke="black" points="276.12,-427.64 266.56,-423.08 271.19,-432.61 276.12,-427.64"/>
</g>
<!-- a -->
<g id="node10" class="node">
<title>a</title>
<polygon fill="none" stroke="black" points="594,-423 540,-423 540,-387 594,-387 594,-423"/>
<text text-anchor="middle" x="567" y="-401.3" font-family="Times,serif" font-size="14.00">a</text>
</g>
<!-- tableur&#45;&gt;a -->
<g id="edge8" class="edge">
<title>tableur&#45;&gt;a</title>
<path fill="none" stroke="black" d="M567,-469.82C567,-459.19 567,-445.31 567,-433.2"/>
<polygon fill="black" stroke="black" points="570.5,-433.15 567,-423.15 563.5,-433.15 570.5,-433.15"/>
</g>
<!-- drive_SVG -->
<g id="node2" class="node">
<title>drive_SVG</title>
<ellipse fill="lightgrey" stroke="black" cx="446" cy="-488" rx="59.29" ry="18"/>
<text text-anchor="middle" x="446" y="-484.3" font-family="Times,serif" font-size="14.00">drive_SVG</text>
</g>
<!-- drive_SVG&#45;&gt;unmatched -->
<g id="edge2" class="edge">
<title>drive_SVG&#45;&gt;unmatched</title>
<path fill="none" stroke="black" d="M392.61,-480.05C366.41,-475.19 334.98,-467.14 309,-454 297.09,-447.98 285.53,-439.02 275.97,-430.47"/>
<polygon fill="black" stroke="black" points="278.14,-427.71 268.44,-423.45 273.37,-432.83 278.14,-427.71"/>
</g>
<!-- flat_icon -->
<g id="node6" class="node">
<title>flat_icon</title>
<polygon fill="none" stroke="black" points="447.5,-351 370.5,-351 370.5,-315 447.5,-315 447.5,-351"/>
<text text-anchor="middle" x="409" y="-329.3" font-family="Times,serif" font-size="14.00">flat_icon</text>
</g>
<!-- drive_SVG&#45;&gt;flat_icon -->
<g id="edge4" class="edge">
<title>drive_SVG&#45;&gt;flat_icon</title>
<path fill="none" stroke="black" d="M443.49,-469.85C440.38,-449.8 434.56,-415.71 427,-387 424.71,-378.32 421.73,-368.99 418.85,-360.63"/>
<polygon fill="black" stroke="black" points="422.08,-359.26 415.45,-351 415.48,-361.6 422.08,-359.26"/>
</g>
<!-- extract_osm -->
<g id="node3" class="node">
<title>extract_osm</title>
<ellipse fill="lightgrey" stroke="black" cx="697" cy="-488" rx="67.69" ry="18"/>
<text text-anchor="middle" x="697" y="-484.3" font-family="Times,serif" font-size="14.00">extract_osm</text>
</g>
<!-- OpenMapTiles -->
<g id="node13" class="node">
<title>OpenMapTiles</title>
<polygon fill="none" stroke="black" points="743.5,-279 624.5,-279 624.5,-243 743.5,-243 743.5,-279"/>
<text text-anchor="middle" x="684" y="-257.3" font-family="Times,serif" font-size="14.00">OpenMapTiles</text>
</g>
<!-- extract_osm&#45;&gt;OpenMapTiles -->
<g id="edge13" class="edge">
<title>extract_osm&#45;&gt;OpenMapTiles</title>
<path fill="none" stroke="black" d="M743.32,-474.72C827.68,-450.16 992.24,-390.78 931,-315 909.05,-287.84 818.85,-273.96 753.79,-267.35"/>
<polygon fill="black" stroke="black" points="753.87,-263.84 743.58,-266.35 753.19,-270.81 753.87,-263.84"/>
</g>
<!-- lister_erreur_icones -->
<g id="node5" class="node">
<title>lister_erreur_icones</title>
<ellipse fill="cyan" stroke="black" cx="119" cy="-333" rx="102.88" ry="18"/>
<text text-anchor="middle" x="119" y="-329.3" font-family="Times,serif" font-size="14.00">lister_erreur_icones</text>
</g>
<!-- unmatched&#45;&gt;lister_erreur_icones -->
<g id="edge3" class="edge">
<title>unmatched&#45;&gt;lister_erreur_icones</title>
<path fill="none" stroke="black" d="M219.46,-386.88C201.14,-377.23 178.11,-365.11 158.73,-354.91"/>
<polygon fill="black" stroke="black" points="160.31,-351.79 149.83,-350.23 157.05,-357.98 160.31,-351.79"/>
</g>
<!-- style_git -->
<g id="node8" class="node">
<title>style_git</title>
<ellipse fill="none" stroke="black" cx="398" cy="-261" rx="50.09" ry="18"/>
<text text-anchor="middle" x="398" y="-257.3" font-family="Times,serif" font-size="14.00">style_git</text>
</g>
<!-- flat_icon&#45;&gt;style_git -->
<g id="edge6" class="edge">
<title>flat_icon&#45;&gt;style_git</title>
<path fill="none" stroke="black" d="M406.28,-314.7C405.07,-306.98 403.61,-297.71 402.26,-289.11"/>
<polygon fill="black" stroke="black" points="405.7,-288.44 400.69,-279.1 398.78,-289.53 405.7,-288.44"/>
</g>
<!-- couleurs -->
<g id="node7" class="node">
<title>couleurs</title>
<ellipse fill="lightgrey" stroke="black" cx="368" cy="-405" rx="50.09" ry="18"/>
<text text-anchor="middle" x="368" y="-401.3" font-family="Times,serif" font-size="14.00">couleurs</text>
</g>
<!-- couleurs&#45;&gt;flat_icon -->
<g id="edge5" class="edge">
<title>couleurs&#45;&gt;flat_icon</title>
<path fill="none" stroke="black" d="M377.92,-387.05C382.69,-378.92 388.5,-369 393.81,-359.94"/>
<polygon fill="black" stroke="black" points="396.85,-361.67 398.88,-351.28 390.81,-358.14 396.85,-361.67"/>
</g>
<!-- tileserver -->
<g id="node15" class="node">
<title>tileserver</title>
<polygon fill="none" stroke="black" points="525,-124 439,-124 439,-88 525,-88 525,-124"/>
<text text-anchor="middle" x="482" y="-102.3" font-family="Times,serif" font-size="14.00">tileserver</text>
</g>
<!-- style_git&#45;&gt;tileserver -->
<g id="edge15" class="edge">
<title>style_git&#45;&gt;tileserver</title>
<path fill="none" stroke="black" d="M407.31,-243.04C421.94,-216.39 450.43,-164.5 467.68,-133.08"/>
<polygon fill="black" stroke="black" points="470.9,-134.48 472.65,-124.03 464.77,-131.12 470.9,-134.48"/>
</g>
<!-- style_json -->
<g id="node9" class="node">
<title>style_json</title>
<ellipse fill="lightgrey" stroke="black" cx="296" cy="-333" rx="56.59" ry="18"/>
<text text-anchor="middle" x="296" y="-329.3" font-family="Times,serif" font-size="14.00">style_json</text>
</g>
<!-- style_json&#45;&gt;style_git -->
<g id="edge7" class="edge">
<title>style_json&#45;&gt;style_git</title>
<path fill="none" stroke="black" d="M318.64,-316.46C333,-306.61 351.76,-293.73 367.43,-282.98"/>
<polygon fill="black" stroke="black" points="369.51,-285.8 375.78,-277.25 365.55,-280.02 369.51,-285.8"/>
</g>
<!-- class_teritorio_sql -->
<g id="node11" class="node">
<title>class_teritorio_sql</title>
<ellipse fill="none" stroke="black" cx="567" cy="-333" rx="94.78" ry="18"/>
<text text-anchor="middle" x="567" y="-329.3" font-family="Times,serif" font-size="14.00">class_teritorio_sql</text>
</g>
<!-- a&#45;&gt;class_teritorio_sql -->
<g id="edge9" class="edge">
<title>a&#45;&gt;class_teritorio_sql</title>
<path fill="none" stroke="black" d="M567,-386.7C567,-378.98 567,-369.71 567,-361.11"/>
<polygon fill="black" stroke="black" points="570.5,-361.1 567,-351.1 563.5,-361.1 570.5,-361.1"/>
</g>
<!-- mapping_teritorio_yaml -->
<g id="node12" class="node">
<title>mapping_teritorio_yaml</title>
<ellipse fill="none" stroke="black" cx="801" cy="-333" rx="120.78" ry="18"/>
<text text-anchor="middle" x="801" y="-329.3" font-family="Times,serif" font-size="14.00">mapping_teritorio_yaml</text>
</g>
<!-- a&#45;&gt;mapping_teritorio_yaml -->
<g id="edge10" class="edge">
<title>a&#45;&gt;mapping_teritorio_yaml</title>
<path fill="none" stroke="black" d="M594.3,-395.83C629.76,-385.23 692.67,-366.41 739.81,-352.3"/>
<polygon fill="black" stroke="black" points="741.04,-355.59 749.61,-349.37 739.03,-348.89 741.04,-355.59"/>
</g>
<!-- class_teritorio_sql&#45;&gt;OpenMapTiles -->
<g id="edge11" class="edge">
<title>class_teritorio_sql&#45;&gt;OpenMapTiles</title>
<path fill="none" stroke="black" d="M594.43,-315.59C610.08,-306.23 629.9,-294.37 646.91,-284.19"/>
<polygon fill="black" stroke="black" points="648.73,-287.18 655.52,-279.04 645.14,-281.17 648.73,-287.18"/>
</g>
<!-- mapping_teritorio_yaml&#45;&gt;OpenMapTiles -->
<g id="edge12" class="edge">
<title>mapping_teritorio_yaml&#45;&gt;OpenMapTiles</title>
<path fill="none" stroke="black" d="M773.27,-315.41C757.88,-306.2 738.51,-294.61 721.75,-284.59"/>
<polygon fill="black" stroke="black" points="723.13,-281.33 712.75,-279.2 719.53,-287.34 723.13,-281.33"/>
</g>
<!-- mbtiles -->
<g id="node14" class="node">
<title>mbtiles</title>
<ellipse fill="none" stroke="black" cx="542" cy="-189" rx="45.49" ry="18"/>
<text text-anchor="middle" x="542" y="-185.3" font-family="Times,serif" font-size="14.00">mbtiles</text>
</g>
<!-- OpenMapTiles&#45;&gt;mbtiles -->
<g id="edge14" class="edge">
<title>OpenMapTiles&#45;&gt;mbtiles</title>
<path fill="none" stroke="black" d="M649.26,-242.88C627.81,-232.3 600.31,-218.74 578.53,-208.01"/>
<polygon fill="black" stroke="black" points="579.79,-204.73 569.27,-203.44 576.69,-211 579.79,-204.73"/>
</g>
<!-- mbtiles&#45;&gt;tileserver -->
<g id="edge16" class="edge">
<title>mbtiles&#45;&gt;tileserver</title>
<path fill="none" stroke="black" d="M529.86,-171.61C521.57,-160.42 510.42,-145.36 500.96,-132.6"/>
<polygon fill="black" stroke="black" points="503.51,-130.16 494.75,-124.21 497.88,-134.32 503.51,-130.16"/>
</g>
<!-- web -->
<g id="node16" class="node">
<title>web</title>
<ellipse fill="cyan" stroke="black" cx="482" cy="-34" rx="29.8" ry="18"/>
<text text-anchor="middle" x="482" y="-30.3" font-family="Times,serif" font-size="14.00">web</text>
</g>
<!-- tileserver&#45;&gt;web -->
<g id="edge17" class="edge">
<title>tileserver&#45;&gt;web</title>
<path fill="none" stroke="black" d="M482,-87.7C482,-79.98 482,-70.71 482,-62.11"/>
<polygon fill="black" stroke="black" points="485.5,-62.1 482,-52.1 478.5,-62.1 485.5,-62.1"/>
</g>
</g>
</svg>
