<?xml version="1.0" encoding="UTF-8" standalone="no"?>
<!DOCTYPE svg PUBLIC "-//W3C//DTD SVG 1.1//EN"
 "http://www.w3.org/Graphics/SVG/1.1/DTD/svg11.dtd">
<!-- Generated by graphviz version 3.0.0 (0)
 -->
<!-- Title: G Pages: 1 -->
<svg width="951pt" height="806pt"
 viewBox="0.00 0.00 951.00 806.00" xmlns="http://www.w3.org/2000/svg" xmlns:xlink="http://www.w3.org/1999/xlink">
<g id="graph0" class="graph" transform="scale(1 1) rotate(0) translate(4 802)">
<title>G</title>
<polygon fill="white" stroke="transparent" points="-4,4 -4,-802 947,-802 947,4 -4,4"/>
<g id="clust1" class="cluster">
<title>cluster_sources</title>
<polygon fill="none" stroke="black" points="304,-715 304,-790 694,-790 694,-715 304,-715"/>
<text text-anchor="middle" x="499" y="-774.8" font-family="Times,serif" font-size="14.00">Sources</text>
</g>
<g id="clust2" class="cluster">
<title>cluster_style</title>
<polygon fill="none" stroke="black" points="8,-440 8,-682 300,-682 300,-440 8,-440"/>
<text text-anchor="middle" x="154" y="-666.8" font-family="Times,serif" font-size="14.00">Styles Builder</text>
</g>
<g id="clust3" class="cluster">
<title>cluster_data</title>
<polygon fill="none" stroke="black" points="338,-440 338,-682 600,-682 600,-440 338,-440"/>
<text text-anchor="middle" x="469" y="-666.8" font-family="Times,serif" font-size="14.00">OMT Builder</text>
</g>
<g id="clust4" class="cluster">
<title>cluster_tile_serveur</title>
<polygon fill="none" stroke="black" points="292,-332 292,-407 396,-407 396,-332 292,-332"/>
<text text-anchor="middle" x="344" y="-391.8" font-family="Times,serif" font-size="14.00">Tile Serveur</text>
</g>
<g id="clust5" class="cluster">
<title>cluster_synchro_osm</title>
<polygon fill="none" stroke="black" points="676,-607 676,-682 822,-682 822,-607 676,-607"/>
<text text-anchor="middle" x="749" y="-666.8" font-family="Times,serif" font-size="14.00">Synchro OSM</text>
</g>
<g id="clust6" class="cluster">
<title>cluster_wp_elasa</title>
<polygon fill="none" stroke="black" points="674,-332 674,-588 806,-588 806,-332 674,-332"/>
<text text-anchor="middle" x="740" y="-572.8" font-family="Times,serif" font-size="14.00">WP/Elasa</text>
</g>
<g id="clust7" class="cluster">
<title>cluster_merge_proxy</title>
<polygon fill="none" stroke="black" points="353,-116 353,-299 573,-299 573,-116 353,-116"/>
<text text-anchor="middle" x="463" y="-283.8" font-family="Times,serif" font-size="14.00">Merge proxy</text>
</g>
<g id="clust8" class="cluster">
<title>cluster_viso_server</title>
<polygon fill="none" stroke="black" points="797,-116 797,-299 935,-299 935,-116 797,-116"/>
<text text-anchor="middle" x="866" y="-283.8" font-family="Times,serif" font-size="14.00">Vido Serveur</text>
</g>
<g id="clust9" class="cluster">
<title>cluster_elasa_search</title>
<polygon fill="none" stroke="black" points="581,-224 581,-299 691,-299 691,-224 581,-224"/>
<text text-anchor="middle" x="636" y="-283.8" font-family="Times,serif" font-size="14.00">Elasa Search</text>
</g>
<g id="clust10" class="cluster">
<title>cluster_elasa_print</title>
<polygon fill="none" stroke="black" points="639,-116 639,-191 749,-191 749,-116 639,-116"/>
<text text-anchor="middle" x="694" y="-175.8" font-family="Times,serif" font-size="14.00">Elasa Search</text>
</g>
<g id="clust11" class="cluster">
<title>cluster_web</title>
<polygon fill="none" stroke="black" points="583,-8 583,-83 659,-83 659,-8 583,-8"/>
<text text-anchor="middle" x="621" y="-67.8" font-family="Times,serif" font-size="14.00">Web</text>
</g>
<!-- tableur -->
<g id="node1" class="node">
<title>tableur</title>
<ellipse fill="lightgrey" stroke="black" cx="492" cy="-741" rx="44.39" ry="18"/>
<text text-anchor="middle" x="492" y="-737.3" font-family="Times,serif" font-size="14.00">tableur</text>
</g>
<!-- couleurs -->
<g id="node6" class="node">
<title>couleurs</title>
<ellipse fill="lightgrey" stroke="black" cx="88" cy="-633" rx="50.09" ry="18"/>
<text text-anchor="middle" x="88" y="-629.3" font-family="Times,serif" font-size="14.00">couleurs</text>
</g>
<!-- tableur&#45;&gt;couleurs -->
<g id="edge2" class="edge">
<title>tableur&#45;&gt;couleurs</title>
<path fill="none" stroke="black" d="M466.78,-726.04C458.2,-721.85 448.4,-717.67 439,-715 313.36,-679.33 267.41,-732.59 147,-682 133.42,-676.29 120.47,-666.45 110.18,-657.15"/>
<polygon fill="black" stroke="black" points="112.53,-654.56 102.87,-650.22 107.72,-659.64 112.53,-654.56"/>
<text text-anchor="middle" x="416.5" y="-693.8" font-family="Times,serif" font-size="14.00">manuel</text>
</g>
<!-- ontology_build -->
<g id="node10" class="node">
<title>ontology_build</title>
<polygon fill="none" stroke="black" points="552.5,-651 431.5,-651 431.5,-615 552.5,-615 552.5,-651"/>
<text text-anchor="middle" x="492" y="-629.3" font-family="Times,serif" font-size="14.00">ontology_build</text>
</g>
<!-- tableur&#45;&gt;ontology_build -->
<g id="edge6" class="edge">
<title>tableur&#45;&gt;ontology_build</title>
<path fill="none" stroke="black" d="M492,-722.97C492,-706.38 492,-680.88 492,-661.43"/>
<polygon fill="black" stroke="black" points="495.5,-661.34 492,-651.34 488.5,-661.34 495.5,-661.34"/>
</g>
<!-- drive_SVG -->
<g id="node2" class="node">
<title>drive_SVG</title>
<ellipse fill="lightgrey" stroke="black" cx="371" cy="-741" rx="59.29" ry="18"/>
<text text-anchor="middle" x="371" y="-737.3" font-family="Times,serif" font-size="14.00">drive_SVG</text>
</g>
<!-- flat_icon -->
<g id="node5" class="node">
<title>flat_icon</title>
<polygon fill="none" stroke="black" points="115.5,-557 38.5,-557 38.5,-521 115.5,-521 115.5,-557"/>
<text text-anchor="middle" x="77" y="-535.3" font-family="Times,serif" font-size="14.00">flat_icon</text>
</g>
<!-- drive_SVG&#45;&gt;flat_icon -->
<g id="edge1" class="edge">
<title>drive_SVG&#45;&gt;flat_icon</title>
<path fill="none" stroke="black" d="M312.1,-738.82C224.02,-735.67 64.52,-724.13 29,-682 0.33,-647.99 31.35,-596.09 55.12,-565.35"/>
<polygon fill="black" stroke="black" points="58.07,-567.27 61.58,-557.28 52.6,-562.9 58.07,-567.27"/>
</g>
<!-- osm -->
<g id="node3" class="node">
<title>osm</title>
<ellipse fill="lightgrey" stroke="black" cx="656" cy="-741" rx="29.8" ry="18"/>
<text text-anchor="middle" x="656" y="-737.3" font-family="Times,serif" font-size="14.00">osm</text>
</g>
<!-- OpenMapTiles -->
<g id="node13" class="node">
<title>OpenMapTiles</title>
<polygon fill="none" stroke="black" points="514.5,-484 395.5,-484 395.5,-448 514.5,-448 514.5,-484"/>
<text text-anchor="middle" x="455" y="-462.3" font-family="Times,serif" font-size="14.00">OpenMapTiles</text>
</g>
<!-- osm&#45;&gt;OpenMapTiles -->
<g id="edge11" class="edge">
<title>osm&#45;&gt;OpenMapTiles</title>
<path fill="none" stroke="black" d="M656.75,-722.75C657.55,-682.22 653.88,-579.94 601,-521 581.31,-499.05 551.88,-486.01 524.6,-478.26"/>
<polygon fill="black" stroke="black" points="525.23,-474.8 514.66,-475.64 523.44,-481.57 525.23,-474.8"/>
</g>
<!-- partial_osm -->
<g id="node15" class="node">
<title>partial_osm</title>
<ellipse fill="none" stroke="black" cx="749" cy="-633" rx="64.99" ry="18"/>
<text text-anchor="middle" x="749" y="-629.3" font-family="Times,serif" font-size="14.00">partial_osm</text>
</g>
<!-- osm&#45;&gt;partial_osm -->
<g id="edge15" class="edge">
<title>osm&#45;&gt;partial_osm</title>
<path fill="none" stroke="black" d="M669.32,-724.81C684.58,-707.43 709.77,-678.72 727.74,-658.23"/>
<polygon fill="black" stroke="black" points="730.51,-660.38 734.48,-650.56 725.25,-655.76 730.51,-660.38"/>
</g>
<!-- sit -->
<g id="node4" class="node">
<title>sit</title>
<ellipse fill="lightgrey" stroke="black" cx="581" cy="-741" rx="27" ry="18"/>
<text text-anchor="middle" x="581" y="-737.3" font-family="Times,serif" font-size="14.00">sit</text>
</g>
<!-- postgres -->
<g id="node16" class="node">
<title>postgres</title>
<ellipse fill="none" stroke="black" cx="740" cy="-539" rx="51.19" ry="18"/>
<text text-anchor="middle" x="740" y="-535.3" font-family="Times,serif" font-size="14.00">postgres</text>
</g>
<!-- sit&#45;&gt;postgres -->
<g id="edge16" class="edge">
<title>sit&#45;&gt;postgres</title>
<path fill="none" stroke="black" d="M590.71,-723.73C606.41,-697.92 638.98,-646.49 672,-607 685.06,-591.38 701.25,-575.31 714.56,-562.83"/>
<polygon fill="black" stroke="black" points="717.06,-565.29 722.01,-555.93 712.3,-560.16 717.06,-565.29"/>
</g>
<!-- sprites_X -->
<g id="node7" class="node">
<title>sprites_X</title>
<ellipse fill="none" stroke="black" cx="70" cy="-466" rx="53.89" ry="18"/>
<text text-anchor="middle" x="70" y="-462.3" font-family="Times,serif" font-size="14.00">sprites_X</text>
</g>
<!-- flat_icon&#45;&gt;sprites_X -->
<g id="edge4" class="edge">
<title>flat_icon&#45;&gt;sprites_X</title>
<path fill="none" stroke="black" d="M75.31,-520.81C74.51,-512.79 73.55,-503.05 72.67,-494.07"/>
<polygon fill="black" stroke="black" points="76.14,-493.64 71.68,-484.03 69.18,-494.32 76.14,-493.64"/>
</g>
<!-- missing_icons -->
<g id="node8" class="node">
<title>missing_icons</title>
<ellipse fill="cyan" stroke="black" cx="217" cy="-466" rx="75.29" ry="18"/>
<text text-anchor="middle" x="217" y="-462.3" font-family="Times,serif" font-size="14.00">missing_icons</text>
</g>
<!-- flat_icon&#45;&gt;missing_icons -->
<g id="edge5" class="edge">
<title>flat_icon&#45;&gt;missing_icons</title>
<path fill="none" stroke="black" d="M110.53,-520.99C130.55,-510.84 156.08,-497.9 177.12,-487.23"/>
<polygon fill="black" stroke="black" points="178.8,-490.3 186.13,-482.65 175.63,-484.06 178.8,-490.3"/>
</g>
<!-- couleurs&#45;&gt;flat_icon -->
<g id="edge3" class="edge">
<title>couleurs&#45;&gt;flat_icon</title>
<path fill="none" stroke="black" d="M85.93,-614.7C84.33,-601.33 82.09,-582.59 80.25,-567.22"/>
<polygon fill="black" stroke="black" points="83.72,-566.74 79.06,-557.23 76.77,-567.57 83.72,-566.74"/>
</g>
<!-- tileserver -->
<g id="node14" class="node">
<title>tileserver</title>
<polygon fill="none" stroke="black" points="387,-376 301,-376 301,-340 387,-340 387,-376"/>
<text text-anchor="middle" x="344" y="-354.3" font-family="Times,serif" font-size="14.00">tileserver</text>
</g>
<!-- sprites_X&#45;&gt;tileserver -->
<g id="edge13" class="edge">
<title>sprites_X&#45;&gt;tileserver</title>
<path fill="none" stroke="black" d="M103.32,-451.7C112.89,-447.9 123.35,-443.77 133,-440 186.86,-418.98 248.63,-395.32 291.35,-379.02"/>
<polygon fill="black" stroke="black" points="292.61,-382.29 300.71,-375.46 290.11,-375.75 292.61,-382.29"/>
</g>
<!-- style_X_json -->
<g id="node9" class="node">
<title>style_X_json</title>
<ellipse fill="lightgrey" stroke="black" cx="224" cy="-633" rx="67.69" ry="18"/>
<text text-anchor="middle" x="224" y="-629.3" font-family="Times,serif" font-size="14.00">style_X_json</text>
</g>
<!-- style_X_json&#45;&gt;tileserver -->
<g id="edge12" class="edge">
<title>style_X_json&#45;&gt;tileserver</title>
<path fill="none" stroke="black" d="M233.86,-615.09C249.4,-588 279.98,-532.97 301,-484 315.16,-451.01 328.08,-411.66 335.98,-386.04"/>
<polygon fill="black" stroke="black" points="339.38,-386.87 338.95,-376.29 332.68,-384.83 339.38,-386.87"/>
</g>
<!-- class_sql -->
<g id="node11" class="node">
<title>class_sql</title>
<ellipse fill="none" stroke="black" cx="398" cy="-539" rx="51.99" ry="18"/>
<text text-anchor="middle" x="398" y="-535.3" font-family="Times,serif" font-size="14.00">class_sql</text>
</g>
<!-- ontology_build&#45;&gt;class_sql -->
<g id="edge7" class="edge">
<title>ontology_build&#45;&gt;class_sql</title>
<path fill="none" stroke="black" d="M474.32,-614.7C459.6,-600.29 438.5,-579.64 422.21,-563.7"/>
<polygon fill="black" stroke="black" points="424.25,-560.79 414.65,-556.3 419.35,-565.8 424.25,-560.79"/>
</g>
<!-- poi_X_yaml -->
<g id="node12" class="node">
<title>poi_X_yaml</title>
<ellipse fill="none" stroke="black" cx="530" cy="-539" rx="62.29" ry="18"/>
<text text-anchor="middle" x="530" y="-535.3" font-family="Times,serif" font-size="14.00">poi_X_yaml</text>
</g>
<!-- ontology_build&#45;&gt;poi_X_yaml -->
<g id="edge8" class="edge">
<title>ontology_build&#45;&gt;poi_X_yaml</title>
<path fill="none" stroke="black" d="M499.15,-614.7C504.76,-601.12 512.66,-581.99 519.06,-566.48"/>
<polygon fill="black" stroke="black" points="522.43,-567.49 523.01,-556.92 515.96,-564.82 522.43,-567.49"/>
</g>
<!-- class_sql&#45;&gt;OpenMapTiles -->
<g id="edge9" class="edge">
<title>class_sql&#45;&gt;OpenMapTiles</title>
<path fill="none" stroke="black" d="M411.22,-521.53C418.21,-512.83 426.94,-501.95 434.76,-492.21"/>
<polygon fill="black" stroke="black" points="437.53,-494.36 441.06,-484.37 432.07,-489.98 437.53,-494.36"/>
</g>
<!-- poi_X_yaml&#45;&gt;OpenMapTiles -->
<g id="edge10" class="edge">
<title>poi_X_yaml&#45;&gt;OpenMapTiles</title>
<path fill="none" stroke="black" d="M512.6,-521.53C503.06,-512.5 491.06,-501.13 480.48,-491.12"/>
<polygon fill="black" stroke="black" points="482.75,-488.45 473.08,-484.12 477.94,-493.54 482.75,-488.45"/>
</g>
<!-- OpenMapTiles&#45;&gt;tileserver -->
<g id="edge14" class="edge">
<title>OpenMapTiles&#45;&gt;tileserver</title>
<path fill="none" stroke="black" d="M437.17,-447.97C418.83,-430.46 390.1,-403.02 369.39,-383.25"/>
<polygon fill="black" stroke="black" points="371.81,-380.72 362.16,-376.34 366.97,-385.78 371.81,-380.72"/>
<text text-anchor="middle" x="444.5" y="-418.8" font-family="Times,serif" font-size="14.00">MBTiles</text>
</g>
<!-- merge_proxy -->
<g id="node19" class="node">
<title>merge_proxy</title>
<ellipse fill="none" stroke="black" cx="443" cy="-250" rx="71.49" ry="18"/>
<text text-anchor="middle" x="443" y="-246.3" font-family="Times,serif" font-size="14.00">merge_proxy</text>
</g>
<!-- tileserver&#45;&gt;merge_proxy -->
<g id="edge20" class="edge">
<title>tileserver&#45;&gt;merge_proxy</title>
<path fill="none" stroke="black" d="M352.79,-339.85C358.4,-329.73 366.26,-317 375,-307 385.71,-294.75 399.27,-283 411.46,-273.46"/>
<polygon fill="black" stroke="black" points="413.8,-276.08 419.63,-267.23 409.55,-270.51 413.8,-276.08"/>
<text text-anchor="middle" x="396.5" y="-310.8" font-family="Times,serif" font-size="14.00">styles</text>
</g>
<!-- tileserver&#45;&gt;merge_proxy -->
<g id="edge21" class="edge">
<title>tileserver&#45;&gt;merge_proxy</title>
<path fill="none" stroke="black" d="M387.34,-343.38C398.52,-338.17 409.72,-331.18 418,-322 428.99,-309.82 435.21,-292.51 438.7,-278.03"/>
<polygon fill="black" stroke="black" points="442.15,-278.61 440.79,-268.11 435.3,-277.17 442.15,-278.61"/>
<text text-anchor="middle" x="442.5" y="-310.8" font-family="Times,serif" font-size="14.00">tiles</text>
</g>
<!-- web -->
<g id="node25" class="node">
<title>web</title>
<ellipse fill="cyan" stroke="black" cx="621" cy="-34" rx="29.8" ry="18"/>
<text text-anchor="middle" x="621" y="-30.3" font-family="Times,serif" font-size="14.00">web</text>
</g>
<!-- tileserver&#45;&gt;web -->
<g id="edge32" class="edge">
<title>tileserver&#45;&gt;web</title>
<path fill="none" stroke="black" d="M336.7,-339.8C325.9,-313.34 306.19,-260.82 299,-214 291.58,-165.67 310.34,-145.94 349,-116 418.86,-61.89 524.33,-43.84 581.23,-37.88"/>
<polygon fill="black" stroke="black" points="581.65,-41.36 591.27,-36.91 580.97,-34.39 581.65,-41.36"/>
<text text-anchor="middle" x="324" y="-202.8" font-family="Times,serif" font-size="14.00">sprites</text>
</g>
<!-- partial_osm&#45;&gt;postgres -->
<g id="edge17" class="edge">
<title>partial_osm&#45;&gt;postgres</title>
<path fill="none" stroke="black" d="M747.31,-614.7C746,-601.33 744.17,-582.59 742.66,-567.22"/>
<polygon fill="black" stroke="black" points="746.14,-566.84 741.69,-557.23 739.18,-567.52 746.14,-566.84"/>
</g>
<!-- API -->
<g id="node17" class="node">
<title>API</title>
<ellipse fill="none" stroke="black" cx="740" cy="-466" rx="27" ry="18"/>
<text text-anchor="middle" x="740" y="-462.3" font-family="Times,serif" font-size="14.00">API</text>
</g>
<!-- postgres&#45;&gt;API -->
<g id="edge18" class="edge">
<title>postgres&#45;&gt;API</title>
<path fill="none" stroke="black" d="M740,-520.81C740,-512.79 740,-503.05 740,-494.07"/>
<polygon fill="black" stroke="black" points="743.5,-494.03 740,-484.03 736.5,-494.03 743.5,-494.03"/>
</g>
<!-- API_cache -->
<g id="node18" class="node">
<title>API_cache</title>
<ellipse fill="none" stroke="black" cx="740" cy="-358" rx="57.69" ry="18"/>
<text text-anchor="middle" x="740" y="-354.3" font-family="Times,serif" font-size="14.00">API_cache</text>
</g>
<!-- API&#45;&gt;API_cache -->
<g id="edge19" class="edge">
<title>API&#45;&gt;API_cache</title>
<path fill="none" stroke="black" d="M740,-447.97C740,-431.38 740,-405.88 740,-386.43"/>
<polygon fill="black" stroke="black" points="743.5,-386.34 740,-376.34 736.5,-386.34 743.5,-386.34"/>
</g>
<!-- API_cache&#45;&gt;merge_proxy -->
<g id="edge22" class="edge">
<title>API_cache&#45;&gt;merge_proxy</title>
<path fill="none" stroke="black" d="M682.12,-356.39C636.84,-353.9 573.34,-345.88 523,-322 499.79,-310.99 478.3,-291.14 463.45,-275.22"/>
<polygon fill="black" stroke="black" points="466.02,-272.85 456.71,-267.78 460.83,-277.55 466.02,-272.85"/>
<text text-anchor="middle" x="565.5" y="-310.8" font-family="Times,serif" font-size="14.00">poi/MBTiles</text>
</g>
<!-- vido -->
<g id="node21" class="node">
<title>vido</title>
<ellipse fill="none" stroke="black" cx="866" cy="-250" rx="30.59" ry="18"/>
<text text-anchor="middle" x="866" y="-246.3" font-family="Times,serif" font-size="14.00">vido</text>
</g>
<!-- API_cache&#45;&gt;vido -->
<g id="edge24" class="edge">
<title>API_cache&#45;&gt;vido</title>
<path fill="none" stroke="black" d="M759.14,-340.9C781.16,-322.38 817.37,-291.91 841.45,-271.66"/>
<polygon fill="black" stroke="black" points="843.71,-274.33 849.11,-265.21 839.2,-268.97 843.71,-274.33"/>
<text text-anchor="middle" x="828" y="-310.8" font-family="Times,serif" font-size="14.00">settings</text>
</g>
<!-- API_cache&#45;&gt;vido -->
<g id="edge25" class="edge">
<title>API_cache&#45;&gt;vido</title>
<path fill="none" stroke="black" d="M796.31,-353.81C819.14,-349.52 843.69,-340.5 859,-322 868.98,-309.95 870.81,-292.5 870.11,-277.92"/>
<polygon fill="black" stroke="black" points="873.6,-277.58 869.23,-267.92 866.62,-278.19 873.6,-277.58"/>
<text text-anchor="middle" x="886" y="-310.8" font-family="Times,serif" font-size="14.00">menu</text>
</g>
<!-- search -->
<g id="node23" class="node">
<title>search</title>
<ellipse fill="none" stroke="black" cx="631" cy="-250" rx="41.69" ry="18"/>
<text text-anchor="middle" x="631" y="-246.3" font-family="Times,serif" font-size="14.00">search</text>
</g>
<!-- API_cache&#45;&gt;search -->
<g id="edge27" class="edge">
<title>API_cache&#45;&gt;search</title>
<path fill="none" stroke="black" d="M682.67,-355.11C658.74,-351.12 633.05,-341.97 618,-322 608.38,-309.23 611.58,-291.56 617.2,-277.04"/>
<polygon fill="black" stroke="black" points="620.54,-278.15 621.36,-267.59 614.13,-275.34 620.54,-278.15"/>
<text text-anchor="middle" x="638" y="-310.8" font-family="Times,serif" font-size="14.00">menu</text>
</g>
<!-- API_cache&#45;&gt;search -->
<g id="edge28" class="edge">
<title>API_cache&#45;&gt;search</title>
<path fill="none" stroke="black" d="M710.11,-342.52C700.22,-336.91 689.57,-329.92 681,-322 666.84,-308.9 654.34,-291.16 645.38,-276.68"/>
<polygon fill="black" stroke="black" points="648.16,-274.51 640.02,-267.73 642.15,-278.11 648.16,-274.51"/>
<text text-anchor="middle" x="692" y="-310.8" font-family="Times,serif" font-size="14.00">poi</text>
</g>
<!-- print -->
<g id="node24" class="node">
<title>print</title>
<ellipse fill="none" stroke="black" cx="694" cy="-142" rx="33.6" ry="18"/>
<text text-anchor="middle" x="694" y="-138.3" font-family="Times,serif" font-size="14.00">print</text>
</g>
<!-- API_cache&#45;&gt;print -->
<g id="edge29" class="edge">
<title>API_cache&#45;&gt;print</title>
<path fill="none" stroke="black" d="M736.31,-339.85C728.32,-302.66 709.34,-214.37 699.75,-169.77"/>
<polygon fill="black" stroke="black" points="703.16,-168.98 697.64,-159.94 696.32,-170.45 703.16,-168.98"/>
<text text-anchor="middle" x="738" y="-246.3" font-family="Times,serif" font-size="14.00">poi</text>
</g>
<!-- API_cache&#45;&gt;web -->
<g id="edge34" class="edge">
<title>API_cache&#45;&gt;web</title>
<path fill="none" stroke="black" d="M744.87,-339.91C747.88,-328.45 751.46,-312.95 753,-299 757.47,-258.58 772.86,-151.49 753,-116 732.74,-79.8 688.95,-57.81 657.35,-46.05"/>
<polygon fill="black" stroke="black" points="658.16,-42.63 647.57,-42.59 655.83,-49.23 658.16,-42.63"/>
<text text-anchor="middle" x="773" y="-202.8" font-family="Times,serif" font-size="14.00">poi</text>
</g>
<!-- merge_proxy_cache -->
<g id="node20" class="node">
<title>merge_proxy_cache</title>
<ellipse fill="none" stroke="black" cx="463" cy="-142" rx="102.08" ry="18"/>
<text text-anchor="middle" x="463" y="-138.3" font-family="Times,serif" font-size="14.00">merge_proxy_cache</text>
</g>
<!-- merge_proxy&#45;&gt;merge_proxy_cache -->
<g id="edge23" class="edge">
<title>merge_proxy&#45;&gt;merge_proxy_cache</title>
<path fill="none" stroke="black" d="M446.21,-231.97C449.34,-215.38 454.15,-189.88 457.82,-170.43"/>
<polygon fill="black" stroke="black" points="461.31,-170.82 459.73,-160.34 454.43,-169.52 461.31,-170.82"/>
</g>
<!-- merge_proxy_cache&#45;&gt;web -->
<g id="edge30" class="edge">
<title>merge_proxy_cache&#45;&gt;web</title>
<path fill="none" stroke="black" d="M487.69,-124.44C516.28,-105.25 563.28,-73.72 593.16,-53.68"/>
<polygon fill="black" stroke="black" points="595.11,-56.58 601.47,-48.1 591.21,-50.77 595.11,-56.58"/>
<text text-anchor="middle" x="558.5" y="-94.8" font-family="Times,serif" font-size="14.00">styles</text>
</g>
<!-- merge_proxy_cache&#45;&gt;web -->
<g id="edge31" class="edge">
<title>merge_proxy_cache&#45;&gt;web</title>
<path fill="none" stroke="black" d="M466.28,-123.81C469.1,-113.16 474.16,-99.88 483,-91 510.04,-63.83 552.03,-49.35 582.6,-41.97"/>
<polygon fill="black" stroke="black" points="583.51,-45.35 592.49,-39.73 581.97,-38.53 583.51,-45.35"/>
<text text-anchor="middle" x="498.5" y="-94.8" font-family="Times,serif" font-size="14.00">tiles</text>
</g>
<!-- vido_cache -->
<g id="node22" class="node">
<title>vido_cache</title>
<ellipse fill="none" stroke="black" cx="866" cy="-142" rx="61.19" ry="18"/>
<text text-anchor="middle" x="866" y="-138.3" font-family="Times,serif" font-size="14.00">vido_cache</text>
</g>
<!-- vido&#45;&gt;vido_cache -->
<g id="edge26" class="edge">
<title>vido&#45;&gt;vido_cache</title>
<path fill="none" stroke="black" d="M866,-231.97C866,-215.38 866,-189.88 866,-170.43"/>
<polygon fill="black" stroke="black" points="869.5,-170.34 866,-160.34 862.5,-170.34 869.5,-170.34"/>
</g>
<!-- vido_cache&#45;&gt;web -->
<g id="edge33" class="edge">
<title>vido_cache&#45;&gt;web</title>
<path fill="none" stroke="black" d="M842.13,-125.26C825.46,-114.69 802.43,-100.94 781,-91 739.75,-71.87 690,-55.43 657.05,-45.4"/>
<polygon fill="black" stroke="black" points="657.97,-42.03 647.39,-42.5 655.96,-48.73 657.97,-42.03"/>
</g>
<!-- search&#45;&gt;web -->
<g id="edge35" class="edge">
<title>search&#45;&gt;web</title>
<path fill="none" stroke="black" d="M630.2,-231.85C628.47,-194.83 624.37,-107.18 622.28,-62.39"/>
<polygon fill="black" stroke="black" points="625.77,-62.06 621.81,-52.23 618.78,-62.38 625.77,-62.06"/>
</g>
<!-- print&#45;&gt;web -->
<g id="edge36" class="edge">
<title>print&#45;&gt;web</title>
<path fill="none" stroke="black" d="M682.91,-124.9C670.89,-107.44 651.57,-79.39 637.71,-59.26"/>
<polygon fill="black" stroke="black" points="640.51,-57.15 631.95,-50.9 634.74,-61.12 640.51,-57.15"/>
<text text-anchor="middle" x="680" y="-94.8" font-family="Times,serif" font-size="14.00">pdf</text>
</g>
</g>
</svg>
