<?xml version="1.0" encoding="UTF-8" standalone="no"?>
<!DOCTYPE svg PUBLIC "-//W3C//DTD SVG 1.1//EN"
 "http://www.w3.org/Graphics/SVG/1.1/DTD/svg11.dtd">
<!-- Generated by graphviz version 3.0.0 (0)
 -->
<!-- Title: G Pages: 1 -->
<svg width="1115pt" height="879pt"
 viewBox="0.00 0.00 1115.07 879.00" xmlns="http://www.w3.org/2000/svg" xmlns:xlink="http://www.w3.org/1999/xlink">
<g id="graph0" class="graph" transform="scale(1 1) rotate(0) translate(4 875)">
<title>G</title>
<polygon fill="white" stroke="transparent" points="-4,4 -4,-875 1111.07,-875 1111.07,4 -4,4"/>
<g id="clust1" class="cluster">
<title>cluster_sources</title>
<polygon fill="none" stroke="black" points="277.07,-788 277.07,-863 785.07,-863 785.07,-788 277.07,-788"/>
<text text-anchor="middle" x="531.07" y="-847.8" font-family="Times,serif" font-size="14.00">Sources</text>
</g>
<g id="clust2" class="cluster">
<title>cluster_data</title>
<polygon fill="none" stroke="black" points="8.07,-499 8.07,-769 459.07,-769 459.07,-499 8.07,-499"/>
<text text-anchor="middle" x="233.57" y="-753.8" font-family="Times,serif" font-size="14.00">OMT Builder</text>
</g>
<g id="clust3" class="cluster">
<title>cluster_style</title>
<polygon fill="none" stroke="black" points="467.07,-426 467.07,-574 759.07,-574 759.07,-426 467.07,-426"/>
<text text-anchor="middle" x="613.07" y="-558.8" font-family="Times,serif" font-size="14.00">Styles Builder</text>
</g>
<g id="clust4" class="cluster">
<title>cluster_tile_serveur</title>
<polygon fill="none" stroke="black" points="528.07,-332 528.07,-407 632.07,-407 632.07,-332 528.07,-332"/>
<text text-anchor="middle" x="580.07" y="-391.8" font-family="Times,serif" font-size="14.00">Tile Serveur</text>
</g>
<g id="clust5" class="cluster">
<title>cluster_synchro_osm</title>
<polygon fill="none" stroke="black" points="778.07,-694 778.07,-769 924.07,-769 924.07,-694 778.07,-694"/>
<text text-anchor="middle" x="851.07" y="-753.8" font-family="Times,serif" font-size="14.00">Synchro OSM</text>
</g>
<g id="clust6" class="cluster">
<title>cluster_wp_elasa</title>
<polygon fill="none" stroke="black" points="797.07,-332 797.07,-574 929.07,-574 929.07,-332 797.07,-332"/>
<text text-anchor="middle" x="863.07" y="-558.8" font-family="Times,serif" font-size="14.00">WP/Elasa</text>
</g>
<g id="clust7" class="cluster">
<title>cluster_merge_proxy</title>
<polygon fill="none" stroke="black" points="517.07,-116 517.07,-299 737.07,-299 737.07,-116 517.07,-116"/>
<text text-anchor="middle" x="627.07" y="-283.8" font-family="Times,serif" font-size="14.00">Merge proxy</text>
</g>
<g id="clust8" class="cluster">
<title>cluster_viso_server</title>
<polygon fill="none" stroke="black" points="961.07,-116 961.07,-299 1099.07,-299 1099.07,-116 961.07,-116"/>
<text text-anchor="middle" x="1030.07" y="-283.8" font-family="Times,serif" font-size="14.00">Vido Serveur</text>
</g>
<g id="clust9" class="cluster">
<title>cluster_elasa_search</title>
<polygon fill="none" stroke="black" points="745.07,-224 745.07,-299 855.07,-299 855.07,-224 745.07,-224"/>
<text text-anchor="middle" x="800.07" y="-283.8" font-family="Times,serif" font-size="14.00">Elasa Search</text>
</g>
<g id="clust10" class="cluster">
<title>cluster_elasa_print</title>
<polygon fill="none" stroke="black" points="816.07,-116 816.07,-191 912.07,-191 912.07,-116 816.07,-116"/>
<text text-anchor="middle" x="864.07" y="-175.8" font-family="Times,serif" font-size="14.00">Elasa Print</text>
</g>
<g id="clust11" class="cluster">
<title>cluster_web</title>
<polygon fill="none" stroke="black" points="759.07,-8 759.07,-83 835.07,-83 835.07,-8 759.07,-8"/>
<text text-anchor="middle" x="797.07" y="-67.8" font-family="Times,serif" font-size="14.00">Web</text>
</g>
<!-- tableur -->
<g id="node1" class="node">
<title>tableur</title>
<ellipse fill="lightgrey" stroke="black" cx="329.07" cy="-814" rx="44.39" ry="18"/>
<text text-anchor="middle" x="329.07" y="-810.3" font-family="Times,serif" font-size="14.00">tableur</text>
</g>
<!-- ontology_build -->
<g id="node6" class="node">
<title>ontology_build</title>
<polygon fill="none" stroke="black" points="389.57,-738 268.57,-738 268.57,-702 389.57,-702 389.57,-738"/>
<text text-anchor="middle" x="329.07" y="-716.3" font-family="Times,serif" font-size="14.00">ontology_build</text>
</g>
<!-- tableur&#45;&gt;ontology_build -->
<g id="edge1" class="edge">
<title>tableur&#45;&gt;ontology_build</title>
<path fill="none" stroke="black" d="M329.07,-795.7C329.07,-782.46 329.07,-763.95 329.07,-748.66"/>
<polygon fill="black" stroke="black" points="332.57,-748.23 329.07,-738.23 325.57,-748.23 332.57,-748.23"/>
</g>
<!-- couleurs -->
<g id="node2" class="node">
<title>couleurs</title>
<ellipse fill="lightgrey" stroke="black" cx="441.07" cy="-814" rx="50.09" ry="18"/>
<text text-anchor="middle" x="441.07" y="-810.3" font-family="Times,serif" font-size="14.00">couleurs</text>
</g>
<!-- couleurs&#45;&gt;ontology_build -->
<g id="edge2" class="edge">
<title>couleurs&#45;&gt;ontology_build</title>
<path fill="none" stroke="black" d="M421.82,-797.18C404.23,-782.74 377.97,-761.17 357.89,-744.67"/>
<polygon fill="black" stroke="black" points="359.92,-741.81 349.97,-738.17 355.48,-747.22 359.92,-741.81"/>
</g>
<!-- style_X_json -->
<g id="node14" class="node">
<title>style_X_json</title>
<ellipse fill="lightgrey" stroke="black" cx="679.07" cy="-525" rx="67.69" ry="18"/>
<text text-anchor="middle" x="679.07" y="-521.3" font-family="Times,serif" font-size="14.00">style_X_json</text>
</g>
<!-- couleurs&#45;&gt;style_X_json -->
<g id="edge13" class="edge">
<title>couleurs&#45;&gt;style_X_json</title>
<path fill="none" stroke="black" d="M459.94,-797.03C486.9,-773.7 537.26,-728.28 574.07,-684 610.29,-640.44 645.24,-584.08 664.28,-551.79"/>
<polygon fill="black" stroke="black" points="667.41,-553.37 669.44,-542.97 661.37,-549.83 667.41,-553.37"/>
<text text-anchor="middle" x="611.57" y="-672.8" font-family="Times,serif" font-size="14.00">manuel</text>
</g>
<!-- drive_SVG -->
<g id="node3" class="node">
<title>drive_SVG</title>
<ellipse fill="lightgrey" stroke="black" cx="568.07" cy="-814" rx="59.29" ry="18"/>
<text text-anchor="middle" x="568.07" y="-810.3" font-family="Times,serif" font-size="14.00">drive_SVG</text>
</g>
<!-- flat_icon -->
<g id="node11" class="node">
<title>flat_icon</title>
<polygon fill="none" stroke="black" points="591.57,-543 514.57,-543 514.57,-507 591.57,-507 591.57,-543"/>
<text text-anchor="middle" x="553.07" y="-521.3" font-family="Times,serif" font-size="14.00">flat_icon</text>
</g>
<!-- drive_SVG&#45;&gt;flat_icon -->
<g id="edge9" class="edge">
<title>drive_SVG&#45;&gt;flat_icon</title>
<path fill="none" stroke="black" d="M567.18,-795.91C564.67,-747.95 557.56,-611.84 554.5,-553.31"/>
<polygon fill="black" stroke="black" points="557.98,-552.81 553.96,-543 550.99,-553.17 557.98,-552.81"/>
</g>
<!-- osm -->
<g id="node4" class="node">
<title>osm</title>
<ellipse fill="lightgrey" stroke="black" cx="675.07" cy="-814" rx="29.8" ry="18"/>
<text text-anchor="middle" x="675.07" y="-810.3" font-family="Times,serif" font-size="14.00">osm</text>
</g>
<!-- OpenMapTiles -->
<g id="node10" class="node">
<title>OpenMapTiles</title>
<polygon fill="none" stroke="black" points="183.57,-543 64.57,-543 64.57,-507 183.57,-507 183.57,-543"/>
<text text-anchor="middle" x="124.07" y="-521.3" font-family="Times,serif" font-size="14.00">OpenMapTiles</text>
</g>
<!-- osm&#45;&gt;OpenMapTiles -->
<g id="edge8" class="edge">
<title>osm&#45;&gt;OpenMapTiles</title>
<path fill="none" stroke="black" d="M657.81,-799.2C651.35,-794.81 643.73,-790.46 636.07,-788 556.4,-762.46 341.27,-789.17 260.07,-769 139.66,-739.09 73.73,-755.64 7.07,-651 -18.8,-610.39 34.91,-571.13 77.85,-547.77"/>
<polygon fill="black" stroke="black" points="79.61,-550.79 86.82,-543.03 76.34,-544.6 79.61,-550.79"/>
</g>
<!-- partial_osm -->
<g id="node16" class="node">
<title>partial_osm</title>
<ellipse fill="none" stroke="black" cx="851.07" cy="-720" rx="64.99" ry="18"/>
<text text-anchor="middle" x="851.07" y="-716.3" font-family="Times,serif" font-size="14.00">partial_osm</text>
</g>
<!-- osm&#45;&gt;partial_osm -->
<g id="edge17" class="edge">
<title>osm&#45;&gt;partial_osm</title>
<path fill="none" stroke="black" d="M694.24,-800.09C700.47,-796.06 707.48,-791.71 714.07,-788 745.24,-770.46 781.66,-752.78 809.11,-739.99"/>
<polygon fill="black" stroke="black" points="810.82,-743.05 818.42,-735.67 807.87,-736.7 810.82,-743.05"/>
</g>
<!-- sit -->
<g id="node5" class="node">
<title>sit</title>
<ellipse fill="lightgrey" stroke="black" cx="750.07" cy="-814" rx="27" ry="18"/>
<text text-anchor="middle" x="750.07" y="-810.3" font-family="Times,serif" font-size="14.00">sit</text>
</g>
<!-- postgres -->
<g id="node17" class="node">
<title>postgres</title>
<ellipse fill="none" stroke="black" cx="856.07" cy="-525" rx="51.19" ry="18"/>
<text text-anchor="middle" x="856.07" y="-521.3" font-family="Times,serif" font-size="14.00">postgres</text>
</g>
<!-- sit&#45;&gt;postgres -->
<g id="edge18" class="edge">
<title>sit&#45;&gt;postgres</title>
<path fill="none" stroke="black" d="M752.15,-795.69C755.29,-772.2 762.17,-729.13 774.07,-694 791.88,-641.4 822.52,-584.06 840.88,-551.82"/>
<polygon fill="black" stroke="black" points="843.98,-553.44 845.93,-543.03 837.91,-549.95 843.98,-553.44"/>
</g>
<!-- class_sql -->
<g id="node7" class="node">
<title>class_sql</title>
<ellipse fill="none" stroke="black" cx="68.07" cy="-633" rx="51.99" ry="18"/>
<text text-anchor="middle" x="68.07" y="-629.3" font-family="Times,serif" font-size="14.00">class_sql</text>
</g>
<!-- ontology_build&#45;&gt;class_sql -->
<g id="edge3" class="edge">
<title>ontology_build&#45;&gt;class_sql</title>
<path fill="none" stroke="black" d="M276.57,-701.9C229,-686.41 159.59,-663.81 114.13,-649"/>
<polygon fill="black" stroke="black" points="115.13,-645.64 104.53,-645.87 112.96,-652.3 115.13,-645.64"/>
</g>
<!-- poi_X_yaml -->
<g id="node8" class="node">
<title>poi_X_yaml</title>
<ellipse fill="none" stroke="black" cx="200.07" cy="-633" rx="62.29" ry="18"/>
<text text-anchor="middle" x="200.07" y="-629.3" font-family="Times,serif" font-size="14.00">poi_X_yaml</text>
</g>
<!-- ontology_build&#45;&gt;poi_X_yaml -->
<g id="edge4" class="edge">
<title>ontology_build&#45;&gt;poi_X_yaml</title>
<path fill="none" stroke="black" d="M302.96,-701.8C282.65,-688.41 254.34,-669.76 232.55,-655.4"/>
<polygon fill="black" stroke="black" points="234.24,-652.32 223.96,-649.74 230.39,-658.17 234.24,-652.32"/>
</g>
<!-- ontology_X_json -->
<g id="node9" class="node">
<title>ontology_X_json</title>
<ellipse fill="cyan" stroke="black" cx="366.07" cy="-633" rx="85.29" ry="18"/>
<text text-anchor="middle" x="366.07" y="-629.3" font-family="Times,serif" font-size="14.00">ontology_X_json</text>
</g>
<!-- ontology_build&#45;&gt;ontology_X_json -->
<g id="edge5" class="edge">
<title>ontology_build&#45;&gt;ontology_X_json</title>
<path fill="none" stroke="black" d="M336.56,-701.8C341.72,-689.93 348.69,-673.93 354.56,-660.45"/>
<polygon fill="black" stroke="black" points="357.81,-661.74 358.59,-651.18 351.39,-658.95 357.81,-661.74"/>
</g>
<!-- class_sql&#45;&gt;OpenMapTiles -->
<g id="edge6" class="edge">
<title>class_sql&#45;&gt;OpenMapTiles</title>
<path fill="none" stroke="black" d="M77.07,-614.97C85.99,-598.07 99.8,-571.94 110.15,-552.36"/>
<polygon fill="black" stroke="black" points="113.33,-553.82 114.91,-543.34 107.14,-550.55 113.33,-553.82"/>
</g>
<!-- poi_X_yaml&#45;&gt;OpenMapTiles -->
<g id="edge7" class="edge">
<title>poi_X_yaml&#45;&gt;OpenMapTiles</title>
<path fill="none" stroke="black" d="M187.86,-614.97C175.58,-597.84 156.49,-571.22 142.4,-551.56"/>
<polygon fill="black" stroke="black" points="145.17,-549.43 136.5,-543.34 139.49,-553.51 145.17,-549.43"/>
</g>
<!-- ontology_X_json&#45;&gt;flat_icon -->
<g id="edge10" class="edge">
<title>ontology_X_json&#45;&gt;flat_icon</title>
<path fill="none" stroke="black" d="M394.47,-615.9C426.4,-597.8 478.44,-568.3 514.15,-548.06"/>
<polygon fill="black" stroke="black" points="515.87,-551.11 522.85,-543.13 512.42,-545.02 515.87,-551.11"/>
<text text-anchor="middle" x="479.57" y="-585.8" font-family="Times,serif" font-size="14.00">manuel</text>
</g>
<!-- tileserver -->
<g id="node15" class="node">
<title>tileserver</title>
<polygon fill="none" stroke="black" points="623.07,-376 537.07,-376 537.07,-340 623.07,-340 623.07,-376"/>
<text text-anchor="middle" x="580.07" y="-354.3" font-family="Times,serif" font-size="14.00">tileserver</text>
</g>
<!-- OpenMapTiles&#45;&gt;tileserver -->
<g id="edge16" class="edge">
<title>OpenMapTiles&#45;&gt;tileserver</title>
<path fill="none" stroke="black" d="M171.15,-506.96C256.89,-475.94 437.88,-410.45 527.5,-378.02"/>
<polygon fill="black" stroke="black" points="528.72,-381.3 536.93,-374.61 526.33,-374.72 528.72,-381.3"/>
<text text-anchor="middle" x="422.57" y="-448.3" font-family="Times,serif" font-size="14.00">MBTiles</text>
</g>
<!-- sprites_X -->
<g id="node12" class="node">
<title>sprites_X</title>
<ellipse fill="none" stroke="black" cx="697.07" cy="-452" rx="53.89" ry="18"/>
<text text-anchor="middle" x="697.07" y="-448.3" font-family="Times,serif" font-size="14.00">sprites_X</text>
</g>
<!-- flat_icon&#45;&gt;sprites_X -->
<g id="edge11" class="edge">
<title>flat_icon&#45;&gt;sprites_X</title>
<path fill="none" stroke="black" d="M586.23,-506.96C591.52,-504.28 596.94,-501.55 602.07,-499 620.48,-489.85 641.01,-479.88 658.26,-471.57"/>
<polygon fill="black" stroke="black" points="659.97,-474.63 667.47,-467.14 656.94,-468.32 659.97,-474.63"/>
</g>
<!-- missing_icons -->
<g id="node13" class="node">
<title>missing_icons</title>
<ellipse fill="cyan" stroke="black" cx="550.07" cy="-452" rx="75.29" ry="18"/>
<text text-anchor="middle" x="550.07" y="-448.3" font-family="Times,serif" font-size="14.00">missing_icons</text>
</g>
<!-- flat_icon&#45;&gt;missing_icons -->
<g id="edge12" class="edge">
<title>flat_icon&#45;&gt;missing_icons</title>
<path fill="none" stroke="black" d="M552.34,-506.81C552,-498.79 551.59,-489.05 551.21,-480.07"/>
<polygon fill="black" stroke="black" points="554.71,-479.87 550.79,-470.03 547.71,-480.17 554.71,-479.87"/>
</g>
<!-- sprites_X&#45;&gt;tileserver -->
<g id="edge15" class="edge">
<title>sprites_X&#45;&gt;tileserver</title>
<path fill="none" stroke="black" d="M676.96,-435.18C658.5,-420.67 630.91,-398.98 609.89,-382.45"/>
<polygon fill="black" stroke="black" points="611.93,-379.6 601.91,-376.17 607.6,-385.1 611.93,-379.6"/>
</g>
<!-- style_X_json&#45;&gt;tileserver -->
<g id="edge14" class="edge">
<title>style_X_json&#45;&gt;tileserver</title>
<path fill="none" stroke="black" d="M715.26,-509.61C732.1,-500.86 750.5,-487.88 760.07,-470 769.3,-452.76 771.23,-442.06 760.07,-426 731.77,-385.27 675.59,-369.25 633.49,-362.98"/>
<polygon fill="black" stroke="black" points="633.76,-359.48 623.38,-361.62 632.82,-366.42 633.76,-359.48"/>
</g>
<!-- merge_proxy -->
<g id="node20" class="node">
<title>merge_proxy</title>
<ellipse fill="none" stroke="black" cx="612.07" cy="-250" rx="71.49" ry="18"/>
<text text-anchor="middle" x="612.07" y="-246.3" font-family="Times,serif" font-size="14.00">merge_proxy</text>
</g>
<!-- tileserver&#45;&gt;merge_proxy -->
<g id="edge22" class="edge">
<title>tileserver&#45;&gt;merge_proxy</title>
<path fill="none" stroke="black" d="M585.21,-339.97C590.27,-323.2 598.08,-297.34 603.98,-277.81"/>
<polygon fill="black" stroke="black" points="607.4,-278.57 606.94,-267.99 600.7,-276.55 607.4,-278.57"/>
<text text-anchor="middle" x="616.57" y="-310.8" font-family="Times,serif" font-size="14.00">styles</text>
</g>
<!-- tileserver&#45;&gt;merge_proxy -->
<g id="edge23" class="edge">
<title>tileserver&#45;&gt;merge_proxy</title>
<path fill="none" stroke="black" d="M563.86,-339.63C556.99,-330.11 551.5,-318.03 556.07,-307 561.4,-294.14 571.26,-282.7 581.25,-273.56"/>
<polygon fill="black" stroke="black" points="583.53,-276.21 588.83,-267.04 578.97,-270.91 583.53,-276.21"/>
<text text-anchor="middle" x="571.57" y="-310.8" font-family="Times,serif" font-size="14.00">tiles</text>
</g>
<!-- web -->
<g id="node26" class="node">
<title>web</title>
<ellipse fill="cyan" stroke="black" cx="797.07" cy="-34" rx="29.8" ry="18"/>
<text text-anchor="middle" x="797.07" y="-30.3" font-family="Times,serif" font-size="14.00">web</text>
</g>
<!-- tileserver&#45;&gt;web -->
<g id="edge34" class="edge">
<title>tileserver&#45;&gt;web</title>
<path fill="none" stroke="black" d="M556.66,-339.85C542.95,-329.08 525.87,-314.37 513.07,-299 485.02,-265.32 474.59,-256.29 463.07,-214 451.05,-169.85 505.51,-121.79 513.07,-116 586.82,-59.56 698.38,-42.44 757.32,-37.25"/>
<polygon fill="black" stroke="black" points="757.67,-40.73 767.35,-36.44 757.1,-33.76 757.67,-40.73"/>
<text text-anchor="middle" x="488.07" y="-202.8" font-family="Times,serif" font-size="14.00">sprites</text>
</g>
<!-- partial_osm&#45;&gt;postgres -->
<g id="edge19" class="edge">
<title>partial_osm&#45;&gt;postgres</title>
<path fill="none" stroke="black" d="M851.51,-701.87C852.38,-668.32 854.32,-593.71 855.36,-553.29"/>
<polygon fill="black" stroke="black" points="858.87,-553.18 855.63,-543.09 851.87,-553 858.87,-553.18"/>
</g>
<!-- API -->
<g id="node18" class="node">
<title>API</title>
<ellipse fill="none" stroke="black" cx="860.07" cy="-452" rx="27" ry="18"/>
<text text-anchor="middle" x="860.07" y="-448.3" font-family="Times,serif" font-size="14.00">API</text>
</g>
<!-- postgres&#45;&gt;API -->
<g id="edge20" class="edge">
<title>postgres&#45;&gt;API</title>
<path fill="none" stroke="black" d="M857.04,-506.81C857.49,-498.79 858.04,-489.05 858.55,-480.07"/>
<polygon fill="black" stroke="black" points="862.04,-480.21 859.11,-470.03 855.05,-479.82 862.04,-480.21"/>
</g>
<!-- API_cache -->
<g id="node19" class="node">
<title>API_cache</title>
<ellipse fill="none" stroke="black" cx="863.07" cy="-358" rx="57.69" ry="18"/>
<text text-anchor="middle" x="863.07" y="-354.3" font-family="Times,serif" font-size="14.00">API_cache</text>
</g>
<!-- API&#45;&gt;API_cache -->
<g id="edge21" class="edge">
<title>API&#45;&gt;API_cache</title>
<path fill="none" stroke="black" d="M860.63,-433.7C861.07,-420.46 861.67,-401.95 862.17,-386.66"/>
<polygon fill="black" stroke="black" points="865.68,-386.34 862.51,-376.23 858.68,-386.11 865.68,-386.34"/>
</g>
<!-- API_cache&#45;&gt;merge_proxy -->
<g id="edge24" class="edge">
<title>API_cache&#45;&gt;merge_proxy</title>
<path fill="none" stroke="black" d="M806.88,-353.65C771.22,-349.67 725,-340.97 688.07,-322 666.19,-310.76 646.07,-291.37 632.04,-275.7"/>
<polygon fill="black" stroke="black" points="634.47,-273.16 625.27,-267.9 629.18,-277.75 634.47,-273.16"/>
<text text-anchor="middle" x="730.57" y="-310.8" font-family="Times,serif" font-size="14.00">poi/MBTiles</text>
</g>
<!-- vido -->
<g id="node22" class="node">
<title>vido</title>
<ellipse fill="none" stroke="black" cx="1030.07" cy="-250" rx="30.59" ry="18"/>
<text text-anchor="middle" x="1030.07" y="-246.3" font-family="Times,serif" font-size="14.00">vido</text>
</g>
<!-- API_cache&#45;&gt;vido -->
<g id="edge26" class="edge">
<title>API_cache&#45;&gt;vido</title>
<path fill="none" stroke="black" d="M898.67,-343.56C912.62,-337.71 928.5,-330.28 942.07,-322 965.54,-307.67 989.67,-287.77 1006.72,-272.68"/>
<polygon fill="black" stroke="black" points="1009.38,-274.99 1014.48,-265.7 1004.7,-269.78 1009.38,-274.99"/>
<text text-anchor="middle" x="991.07" y="-310.8" font-family="Times,serif" font-size="14.00">settings</text>
</g>
<!-- API_cache&#45;&gt;vido -->
<g id="edge27" class="edge">
<title>API_cache&#45;&gt;vido</title>
<path fill="none" stroke="black" d="M917.84,-351.86C958.49,-346.84 1009.18,-337.62 1023.07,-322 1033.47,-310.31 1035.31,-292.86 1034.5,-278.19"/>
<polygon fill="black" stroke="black" points="1037.98,-277.74 1033.54,-268.12 1031.01,-278.41 1037.98,-277.74"/>
<text text-anchor="middle" x="1051.07" y="-310.8" font-family="Times,serif" font-size="14.00">menu</text>
</g>
<!-- search -->
<g id="node24" class="node">
<title>search</title>
<ellipse fill="none" stroke="black" cx="797.07" cy="-250" rx="41.69" ry="18"/>
<text text-anchor="middle" x="797.07" y="-246.3" font-family="Times,serif" font-size="14.00">search</text>
</g>
<!-- API_cache&#45;&gt;search -->
<g id="edge29" class="edge">
<title>API_cache&#45;&gt;search</title>
<path fill="none" stroke="black" d="M816.31,-347.15C803,-341.95 789.98,-334.03 782.07,-322 773.3,-308.66 776.89,-291.12 782.75,-276.82"/>
<polygon fill="black" stroke="black" points="786.03,-278.06 787.05,-267.52 779.68,-275.13 786.03,-278.06"/>
<text text-anchor="middle" x="802.07" y="-310.8" font-family="Times,serif" font-size="14.00">menu</text>
</g>
<!-- API_cache&#45;&gt;search -->
<g id="edge30" class="edge">
<title>API_cache&#45;&gt;search</title>
<path fill="none" stroke="black" d="M852.47,-339.97C841.77,-322.79 825.13,-296.07 812.88,-276.39"/>
<polygon fill="black" stroke="black" points="815.69,-274.28 807.43,-267.64 809.74,-277.98 815.69,-274.28"/>
<text text-anchor="middle" x="850.07" y="-310.8" font-family="Times,serif" font-size="14.00">poi</text>
</g>
<!-- print -->
<g id="node25" class="node">
<title>print</title>
<ellipse fill="none" stroke="black" cx="864.07" cy="-142" rx="33.6" ry="18"/>
<text text-anchor="middle" x="864.07" y="-138.3" font-family="Times,serif" font-size="14.00">print</text>
</g>
<!-- API_cache&#45;&gt;print -->
<g id="edge31" class="edge">
<title>API_cache&#45;&gt;print</title>
<path fill="none" stroke="black" d="M864.24,-339.92C864.58,-334.22 864.9,-327.84 865.07,-322 865.26,-315.34 865.09,-313.67 865.07,-307 864.92,-258.91 864.53,-202.88 864.29,-170.33"/>
<polygon fill="black" stroke="black" points="867.79,-170.21 864.21,-160.24 860.79,-170.26 867.79,-170.21"/>
<text text-anchor="middle" x="875.07" y="-246.3" font-family="Times,serif" font-size="14.00">poi</text>
</g>
<!-- API_cache&#45;&gt;web -->
<g id="edge36" class="edge">
<title>API_cache&#45;&gt;web</title>
<path fill="none" stroke="black" d="M874.17,-340.17C899.58,-299.37 956.74,-192.87 916.07,-116 898.38,-82.56 860,-60.34 831.58,-47.77"/>
<polygon fill="black" stroke="black" points="832.95,-44.55 822.37,-43.87 830.22,-50.99 832.95,-44.55"/>
<text text-anchor="middle" x="939.07" y="-202.8" font-family="Times,serif" font-size="14.00">poi</text>
</g>
<!-- merge_proxy_cache -->
<g id="node21" class="node">
<title>merge_proxy_cache</title>
<ellipse fill="none" stroke="black" cx="627.07" cy="-142" rx="102.08" ry="18"/>
<text text-anchor="middle" x="627.07" y="-138.3" font-family="Times,serif" font-size="14.00">merge_proxy_cache</text>
</g>
<!-- merge_proxy&#45;&gt;merge_proxy_cache -->
<g id="edge25" class="edge">
<title>merge_proxy&#45;&gt;merge_proxy_cache</title>
<path fill="none" stroke="black" d="M614.48,-231.97C616.83,-215.38 620.44,-189.88 623.19,-170.43"/>
<polygon fill="black" stroke="black" points="626.68,-170.73 624.62,-160.34 619.75,-169.75 626.68,-170.73"/>
</g>
<!-- merge_proxy_cache&#45;&gt;web -->
<g id="edge32" class="edge">
<title>merge_proxy_cache&#45;&gt;web</title>
<path fill="none" stroke="black" d="M639.37,-124.03C647.68,-113.48 659.42,-100.21 672.07,-91 699.51,-71.01 735.22,-55.9 761.44,-46.44"/>
<polygon fill="black" stroke="black" points="762.71,-49.71 770.99,-43.1 760.39,-43.1 762.71,-49.71"/>
<text text-anchor="middle" x="693.57" y="-94.8" font-family="Times,serif" font-size="14.00">styles</text>
</g>
<!-- merge_proxy_cache&#45;&gt;web -->
<g id="edge33" class="edge">
<title>merge_proxy_cache&#45;&gt;web</title>
<path fill="none" stroke="black" d="M673.68,-125.81C687.47,-120.44 702.28,-113.77 715.07,-106 737.61,-92.3 760.04,-72.34 775.72,-57.06"/>
<polygon fill="black" stroke="black" points="778.22,-59.52 782.85,-49.99 773.29,-54.55 778.22,-59.52"/>
<text text-anchor="middle" x="749.57" y="-94.8" font-family="Times,serif" font-size="14.00">tiles</text>
</g>
<!-- vido_cache -->
<g id="node23" class="node">
<title>vido_cache</title>
<ellipse fill="none" stroke="black" cx="1030.07" cy="-142" rx="61.19" ry="18"/>
<text text-anchor="middle" x="1030.07" y="-138.3" font-family="Times,serif" font-size="14.00">vido_cache</text>
</g>
<!-- vido&#45;&gt;vido_cache -->
<g id="edge28" class="edge">
<title>vido&#45;&gt;vido_cache</title>
<path fill="none" stroke="black" d="M1030.07,-231.97C1030.07,-215.38 1030.07,-189.88 1030.07,-170.43"/>
<polygon fill="black" stroke="black" points="1033.57,-170.34 1030.07,-160.34 1026.57,-170.34 1033.57,-170.34"/>
</g>
<!-- vido_cache&#45;&gt;web -->
<g id="edge35" class="edge">
<title>vido_cache&#45;&gt;web</title>
<path fill="none" stroke="black" d="M1006.12,-125.43C989.41,-114.94 966.38,-101.21 945.07,-91 907.67,-73.09 862.93,-56.83 832.5,-46.5"/>
<polygon fill="black" stroke="black" points="833.35,-43.1 822.76,-43.23 831.12,-49.73 833.35,-43.1"/>
</g>
<!-- search&#45;&gt;web -->
<g id="edge37" class="edge">
<title>search&#45;&gt;web</title>
<path fill="none" stroke="black" d="M797.07,-231.85C797.07,-194.83 797.07,-107.18 797.07,-62.39"/>
<polygon fill="black" stroke="black" points="800.57,-62.23 797.07,-52.23 793.57,-62.23 800.57,-62.23"/>
</g>
<!-- print&#45;&gt;web -->
<g id="edge38" class="edge">
<title>print&#45;&gt;web</title>
<path fill="none" stroke="black" d="M853.6,-124.44C842.62,-107.07 825.25,-79.58 812.65,-59.66"/>
<polygon fill="black" stroke="black" points="815.55,-57.68 807.25,-51.1 809.63,-61.42 815.55,-57.68"/>
<text text-anchor="middle" x="852.07" y="-94.8" font-family="Times,serif" font-size="14.00">pdf</text>
</g>
</g>
</svg>
